<mxfile host="app.diagrams.net" modified="2022-09-10T00:36:32.183Z" agent="5.0 (Macintosh; Intel Mac OS X 10_15_7) AppleWebKit/537.36 (KHTML, like Gecko) Chrome/104.0.0.0 Safari/537.36" etag="xhUjQJGePALqMbEotXmo" version="20.3.0" type="github" pages="2">
  <diagram name="Page-1" id="74b105a0-9070-1c63-61bc-23e55f88626e">
    <mxGraphModel dx="1358" dy="867" grid="1" gridSize="10" guides="1" tooltips="1" connect="1" arrows="1" fold="1" page="1" pageScale="1.5" pageWidth="1169" pageHeight="826" background="none" math="0" shadow="0">
      <root>
        <mxCell id="0" style=";html=1;" />
        <mxCell id="1" style=";html=1;" parent="0" />
        <mxCell id="10b056a9c633e61c-28" style="edgeStyle=orthogonalEdgeStyle;rounded=0;html=1;endArrow=block;endFill=1;jettySize=auto;orthogonalLoop=1;strokeWidth=2;startArrow=none;startFill=0;" parent="1" target="10b056a9c633e61c-4" edge="1">
          <mxGeometry relative="1" as="geometry">
            <Array as="points">
              <mxPoint x="1267" y="310" />
              <mxPoint x="247" y="310" />
            </Array>
            <mxPoint x="1267" y="370" as="sourcePoint" />
          </mxGeometry>
        </mxCell>
        <mxCell id="10b056a9c633e61c-29" style="edgeStyle=orthogonalEdgeStyle;rounded=0;html=1;endArrow=block;endFill=1;jettySize=auto;orthogonalLoop=1;fontSize=12;strokeWidth=2;startArrow=none;startFill=0;" parent="1" target="10b056a9c633e61c-4" edge="1">
          <mxGeometry relative="1" as="geometry">
            <Array as="points">
              <mxPoint x="1507" y="310" />
              <mxPoint x="247" y="310" />
            </Array>
            <mxPoint x="1507" y="515" as="sourcePoint" />
          </mxGeometry>
        </mxCell>
        <mxCell id="NAhCEB2W1_DOAD3AXYZe-10" value="1. auth" style="edgeStyle=orthogonalEdgeStyle;rounded=0;orthogonalLoop=1;jettySize=auto;html=1;noEdgeStyle=1;orthogonal=1;" edge="1" parent="1" source="NAhCEB2W1_DOAD3AXYZe-1" target="NAhCEB2W1_DOAD3AXYZe-9">
          <mxGeometry relative="1" as="geometry" />
        </mxCell>
        <mxCell id="NAhCEB2W1_DOAD3AXYZe-16" value="4. API request" style="edgeStyle=orthogonalEdgeStyle;rounded=0;orthogonalLoop=1;jettySize=auto;html=1;noEdgeStyle=1;orthogonal=1;" edge="1" parent="1" source="NAhCEB2W1_DOAD3AXYZe-1" target="NAhCEB2W1_DOAD3AXYZe-9">
          <mxGeometry relative="1" as="geometry" />
        </mxCell>
        <mxCell id="NAhCEB2W1_DOAD3AXYZe-1" value="CLI" style="rounded=0;whiteSpace=wrap;html=1;" vertex="1" parent="1">
          <mxGeometry x="450.97222222222223" y="325" width="120" height="60" as="geometry" />
        </mxCell>
        <mxCell id="NAhCEB2W1_DOAD3AXYZe-22" style="edgeStyle=orthogonalEdgeStyle;rounded=0;orthogonalLoop=1;jettySize=auto;html=1;noEdgeStyle=1;orthogonal=1;" edge="1" parent="1" source="NAhCEB2W1_DOAD3AXYZe-2" target="NAhCEB2W1_DOAD3AXYZe-1">
          <mxGeometry relative="1" as="geometry" />
        </mxCell>
        <mxCell id="NAhCEB2W1_DOAD3AXYZe-2" value="Pipelines" style="shape=umlActor;verticalLabelPosition=bottom;verticalAlign=top;html=1;outlineConnect=0;" vertex="1" parent="1">
          <mxGeometry x="361.47222222222223" y="314.5" width="30" height="60" as="geometry" />
        </mxCell>
        <mxCell id="NAhCEB2W1_DOAD3AXYZe-3" style="edgeStyle=orthogonalEdgeStyle;rounded=0;orthogonalLoop=1;jettySize=auto;html=1;exitX=0.5;exitY=1;exitDx=0;exitDy=0;noEdgeStyle=1;" edge="1" parent="1" source="NAhCEB2W1_DOAD3AXYZe-1" target="NAhCEB2W1_DOAD3AXYZe-1">
          <mxGeometry relative="1" as="geometry" />
        </mxCell>
        <mxCell id="NAhCEB2W1_DOAD3AXYZe-12" value="6. route command&amp;nbsp;" style="edgeStyle=orthogonalEdgeStyle;rounded=0;orthogonalLoop=1;jettySize=auto;html=1;noEdgeStyle=1;orthogonal=1;" edge="1" parent="1" source="NAhCEB2W1_DOAD3AXYZe-9" target="NAhCEB2W1_DOAD3AXYZe-11">
          <mxGeometry relative="1" as="geometry" />
        </mxCell>
        <mxCell id="NAhCEB2W1_DOAD3AXYZe-14" value="2. authz" style="edgeStyle=orthogonalEdgeStyle;rounded=0;orthogonalLoop=1;jettySize=auto;html=1;noEdgeStyle=1;orthogonal=1;" edge="1" parent="1" source="NAhCEB2W1_DOAD3AXYZe-9" target="NAhCEB2W1_DOAD3AXYZe-13">
          <mxGeometry relative="1" as="geometry" />
        </mxCell>
        <mxCell id="NAhCEB2W1_DOAD3AXYZe-15" value="3. access token" style="edgeStyle=orthogonalEdgeStyle;rounded=0;orthogonalLoop=1;jettySize=auto;html=1;noEdgeStyle=1;orthogonal=1;" edge="1" parent="1" source="NAhCEB2W1_DOAD3AXYZe-9" target="NAhCEB2W1_DOAD3AXYZe-1">
          <mxGeometry relative="1" as="geometry" />
        </mxCell>
        <mxCell id="NAhCEB2W1_DOAD3AXYZe-17" value="5. introspect token" style="edgeStyle=orthogonalEdgeStyle;rounded=0;orthogonalLoop=1;jettySize=auto;html=1;noEdgeStyle=1;orthogonal=1;" edge="1" parent="1" source="NAhCEB2W1_DOAD3AXYZe-9" target="NAhCEB2W1_DOAD3AXYZe-13">
          <mxGeometry relative="1" as="geometry" />
        </mxCell>
        <mxCell id="n662sS_YWUpIwc5-7mui-9" value="route query" style="edgeStyle=orthogonalEdgeStyle;rounded=0;orthogonalLoop=1;jettySize=auto;html=1;noEdgeStyle=1;orthogonal=1;" edge="1" parent="1" source="NAhCEB2W1_DOAD3AXYZe-9" target="n662sS_YWUpIwc5-7mui-8">
          <mxGeometry relative="1" as="geometry" />
        </mxCell>
        <mxCell id="NAhCEB2W1_DOAD3AXYZe-9" value="API Gateway" style="whiteSpace=wrap;html=1;rounded=0;" vertex="1" parent="1">
          <mxGeometry x="620.9722222222222" y="235" width="91" height="240" as="geometry" />
        </mxCell>
        <mxCell id="NAhCEB2W1_DOAD3AXYZe-24" value="7. store in eventsource" style="edgeStyle=orthogonalEdgeStyle;rounded=0;orthogonalLoop=1;jettySize=auto;html=1;noEdgeStyle=1;orthogonal=1;" edge="1" parent="1" source="NAhCEB2W1_DOAD3AXYZe-11" target="n662sS_YWUpIwc5-7mui-10">
          <mxGeometry relative="1" as="geometry">
            <mxPoint x="883" y="186.25" as="targetPoint" />
          </mxGeometry>
        </mxCell>
        <mxCell id="n662sS_YWUpIwc5-7mui-3" value="data" style="edgeStyle=orthogonalEdgeStyle;rounded=0;orthogonalLoop=1;jettySize=auto;html=1;entryX=0;entryY=0.5;entryDx=0;entryDy=0;entryPerimeter=0;dashed=1;noEdgeStyle=1;orthogonal=1;" edge="1" parent="1" source="NAhCEB2W1_DOAD3AXYZe-11" target="n662sS_YWUpIwc5-7mui-2">
          <mxGeometry relative="1" as="geometry" />
        </mxCell>
        <mxCell id="n662sS_YWUpIwc5-7mui-5" value="event" style="edgeStyle=orthogonalEdgeStyle;rounded=0;orthogonalLoop=1;jettySize=auto;html=1;entryX=0;entryY=0.5;entryDx=0;entryDy=0;dashed=1;noEdgeStyle=1;orthogonal=1;" edge="1" parent="1" source="NAhCEB2W1_DOAD3AXYZe-11" target="n662sS_YWUpIwc5-7mui-4">
          <mxGeometry relative="1" as="geometry" />
        </mxCell>
        <mxCell id="NAhCEB2W1_DOAD3AXYZe-11" value="&amp;lt;&amp;lt;Serverless&amp;gt;&amp;gt;&lt;br&gt;Processor" style="whiteSpace=wrap;html=1;rounded=0;" vertex="1" parent="1">
          <mxGeometry x="761.9722222222222" y="145" width="120" height="60" as="geometry" />
        </mxCell>
        <mxCell id="NAhCEB2W1_DOAD3AXYZe-13" value="IdP" style="whiteSpace=wrap;html=1;rounded=0;" vertex="1" parent="1">
          <mxGeometry x="940.0022222222221" y="330" width="120" height="60" as="geometry" />
        </mxCell>
        <mxCell id="NAhCEB2W1_DOAD3AXYZe-26" value="9. route to fan out" style="edgeStyle=orthogonalEdgeStyle;rounded=0;orthogonalLoop=1;jettySize=auto;html=1;startArrow=none;noEdgeStyle=1;orthogonal=1;" edge="1" parent="1" source="NAhCEB2W1_DOAD3AXYZe-30" target="NAhCEB2W1_DOAD3AXYZe-25">
          <mxGeometry relative="1" as="geometry" />
        </mxCell>
        <mxCell id="NAhCEB2W1_DOAD3AXYZe-34" value="10. receive event" style="edgeStyle=orthogonalEdgeStyle;rounded=0;orthogonalLoop=1;jettySize=auto;html=1;noEdgeStyle=1;orthogonal=1;" edge="1" parent="1" source="NAhCEB2W1_DOAD3AXYZe-25" target="NAhCEB2W1_DOAD3AXYZe-29">
          <mxGeometry relative="1" as="geometry">
            <Array as="points">
              <mxPoint x="150" y="635" />
              <mxPoint x="150" y="680" />
              <mxPoint x="80" y="680" />
              <mxPoint x="80" y="685" />
            </Array>
          </mxGeometry>
        </mxCell>
        <mxCell id="n662sS_YWUpIwc5-7mui-17" value="send event" style="edgeStyle=orthogonalEdgeStyle;rounded=0;orthogonalLoop=1;jettySize=auto;html=1;entryDx=0;entryDy=0;noEdgeStyle=1;orthogonal=1;" edge="1" parent="1" source="NAhCEB2W1_DOAD3AXYZe-25" target="n662sS_YWUpIwc5-7mui-13">
          <mxGeometry relative="1" as="geometry">
            <Array as="points">
              <mxPoint x="150" y="635" />
              <mxPoint x="150" y="680" />
              <mxPoint x="220" y="680" />
              <mxPoint x="220" y="685" />
            </Array>
          </mxGeometry>
        </mxCell>
        <mxCell id="NAhCEB2W1_DOAD3AXYZe-25" value="&amp;lt;&amp;lt;NoSQL DB&amp;gt;&amp;gt;&lt;br&gt;Content-based&amp;nbsp;&lt;br&gt;Fan-out" style="whiteSpace=wrap;html=1;rounded=0;" vertex="1" parent="1">
          <mxGeometry x="90" y="580" width="120" height="60" as="geometry" />
        </mxCell>
        <mxCell id="NAhCEB2W1_DOAD3AXYZe-28" value="0. subscribes to" style="edgeStyle=orthogonalEdgeStyle;rounded=0;orthogonalLoop=1;jettySize=auto;html=1;noEdgeStyle=1;orthogonal=1;" edge="1" parent="1" source="NAhCEB2W1_DOAD3AXYZe-29" target="NAhCEB2W1_DOAD3AXYZe-25">
          <mxGeometry relative="1" as="geometry">
            <mxPoint x="1730" y="322.38" as="sourcePoint" />
            <Array as="points" />
          </mxGeometry>
        </mxCell>
        <mxCell id="NAhCEB2W1_DOAD3AXYZe-29" value="&amp;lt;&amp;lt;Serverless&amp;gt;&amp;gt;&lt;br&gt;Processor" style="whiteSpace=wrap;html=1;rounded=0;" vertex="1" parent="1">
          <mxGeometry x="20" y="690" width="120" height="60" as="geometry" />
        </mxCell>
        <mxCell id="NAhCEB2W1_DOAD3AXYZe-33" value="8. capture changes" style="edgeStyle=orthogonalEdgeStyle;rounded=0;orthogonalLoop=1;jettySize=auto;html=1;noEdgeStyle=1;orthogonal=1;" edge="1" parent="1" source="NAhCEB2W1_DOAD3AXYZe-30" target="n662sS_YWUpIwc5-7mui-10">
          <mxGeometry relative="1" as="geometry">
            <mxPoint x="883" y="211.25" as="targetPoint" />
          </mxGeometry>
        </mxCell>
        <mxCell id="NAhCEB2W1_DOAD3AXYZe-30" value="Change Data Capture" style="whiteSpace=wrap;html=1;rounded=0;" vertex="1" parent="1">
          <mxGeometry x="10" y="190" width="123" height="60" as="geometry" />
        </mxCell>
        <mxCell id="n662sS_YWUpIwc5-7mui-1" value="- Leverage serverless computing&lt;br&gt;- Use EDA&lt;br&gt;-&amp;nbsp;" style="text;html=1;align=center;verticalAlign=middle;resizable=0;points=[];autosize=1;strokeColor=none;fillColor=none;" vertex="1" parent="1">
          <mxGeometry x="295.75" y="20" width="200" height="60" as="geometry" />
        </mxCell>
        <mxCell id="n662sS_YWUpIwc5-7mui-7" value="" style="group" vertex="1" connectable="0" parent="1">
          <mxGeometry x="1210" y="110" width="496" height="700" as="geometry" />
        </mxCell>
        <mxCell id="n662sS_YWUpIwc5-7mui-6" value="transactional" style="rounded=0;whiteSpace=wrap;html=1;dashed=1;gradientColor=default;fillColor=none;verticalAlign=top;align=left;" vertex="1" parent="n662sS_YWUpIwc5-7mui-7">
          <mxGeometry x="340" y="-10" width="170" height="210" as="geometry" />
        </mxCell>
        <mxCell id="n662sS_YWUpIwc5-7mui-2" value="storage" style="shape=cylinder3;whiteSpace=wrap;html=1;boundedLbl=1;backgroundOutline=1;size=15;dashed=1;" vertex="1" parent="n662sS_YWUpIwc5-7mui-7">
          <mxGeometry x="425.9722222222222" y="10" width="50" height="60" as="geometry" />
        </mxCell>
        <mxCell id="n662sS_YWUpIwc5-7mui-4" value="msg&lt;br&gt;broker" style="triangle;whiteSpace=wrap;html=1;dashed=1;" vertex="1" parent="n662sS_YWUpIwc5-7mui-7">
          <mxGeometry x="425.9722222222222" y="110" width="60" height="80" as="geometry" />
        </mxCell>
        <mxCell id="n662sS_YWUpIwc5-7mui-19" value="not in cache, then query normalized DB" style="edgeStyle=orthogonalEdgeStyle;rounded=0;orthogonalLoop=1;jettySize=auto;html=1;noEdgeStyle=1;orthogonal=1;" edge="1" parent="1" source="n662sS_YWUpIwc5-7mui-8" target="n662sS_YWUpIwc5-7mui-12">
          <mxGeometry relative="1" as="geometry" />
        </mxCell>
        <mxCell id="n662sS_YWUpIwc5-7mui-21" value="check cache" style="edgeStyle=orthogonalEdgeStyle;rounded=0;orthogonalLoop=1;jettySize=auto;html=1;entryX=0.5;entryY=0;entryDx=0;entryDy=0;entryPerimeter=0;noEdgeStyle=1;orthogonal=1;" edge="1" parent="1" source="n662sS_YWUpIwc5-7mui-8" target="n662sS_YWUpIwc5-7mui-20">
          <mxGeometry relative="1" as="geometry" />
        </mxCell>
        <mxCell id="n662sS_YWUpIwc5-7mui-8" value="&amp;lt;&amp;lt;Serverless&amp;gt;&amp;gt;&lt;br&gt;Processor" style="whiteSpace=wrap;html=1;rounded=0;" vertex="1" parent="1">
          <mxGeometry x="761.9722222222222" y="505" width="120" height="60" as="geometry" />
        </mxCell>
        <mxCell id="n662sS_YWUpIwc5-7mui-10" value="&lt;meta charset=&quot;utf-8&quot;&gt;&lt;span style=&quot;color: rgb(0, 0, 0); font-family: Helvetica; font-size: 12px; font-style: normal; font-variant-ligatures: normal; font-variant-caps: normal; font-weight: 400; letter-spacing: normal; orphans: 2; text-align: center; text-indent: 0px; text-transform: none; widows: 2; word-spacing: 0px; -webkit-text-stroke-width: 0px; background-color: rgb(248, 249, 250); text-decoration-thickness: initial; text-decoration-style: initial; text-decoration-color: initial; float: none; display: inline !important;&quot;&gt;&amp;lt;&amp;lt;NoSQL DB&amp;gt;&amp;gt;&lt;/span&gt;&lt;br style=&quot;color: rgb(0, 0, 0); font-family: Helvetica; font-size: 12px; font-style: normal; font-variant-ligatures: normal; font-variant-caps: normal; font-weight: 400; letter-spacing: normal; orphans: 2; text-align: center; text-indent: 0px; text-transform: none; widows: 2; word-spacing: 0px; -webkit-text-stroke-width: 0px; background-color: rgb(248, 249, 250); text-decoration-thickness: initial; text-decoration-style: initial; text-decoration-color: initial;&quot;&gt;&lt;span style=&quot;color: rgb(0, 0, 0); font-family: Helvetica; font-size: 12px; font-style: normal; font-variant-ligatures: normal; font-variant-caps: normal; font-weight: 400; letter-spacing: normal; orphans: 2; text-align: center; text-indent: 0px; text-transform: none; widows: 2; word-spacing: 0px; -webkit-text-stroke-width: 0px; background-color: rgb(248, 249, 250); text-decoration-thickness: initial; text-decoration-style: initial; text-decoration-color: initial; float: none; display: inline !important;&quot;&gt;EventSource&lt;/span&gt;&lt;br style=&quot;color: rgb(0, 0, 0); font-family: Helvetica; font-size: 12px; font-style: normal; font-variant-ligatures: normal; font-variant-caps: normal; font-weight: 400; letter-spacing: normal; orphans: 2; text-align: center; text-indent: 0px; text-transform: none; widows: 2; word-spacing: 0px; -webkit-text-stroke-width: 0px; background-color: rgb(248, 249, 250); text-decoration-thickness: initial; text-decoration-style: initial; text-decoration-color: initial;&quot;&gt;&lt;span style=&quot;color: rgb(0, 0, 0); font-family: Helvetica; font-size: 12px; font-style: normal; font-variant-ligatures: normal; font-variant-caps: normal; font-weight: 400; letter-spacing: normal; orphans: 2; text-align: center; text-indent: 0px; text-transform: none; widows: 2; word-spacing: 0px; -webkit-text-stroke-width: 0px; background-color: rgb(248, 249, 250); text-decoration-thickness: initial; text-decoration-style: initial; text-decoration-color: initial; float: none; display: inline !important;&quot;&gt;&amp;nbsp;Storage&lt;/span&gt;" style="shape=cylinder3;whiteSpace=wrap;html=1;boundedLbl=1;backgroundOutline=1;size=15;fillColor=none;gradientColor=default;" vertex="1" parent="1">
          <mxGeometry x="370.00222222222214" y="130" width="97" height="90" as="geometry" />
        </mxCell>
        <mxCell id="n662sS_YWUpIwc5-7mui-12" value="&lt;span style=&quot;color: rgb(0, 0, 0); font-family: Helvetica; font-size: 12px; font-style: normal; font-variant-ligatures: normal; font-variant-caps: normal; font-weight: 400; letter-spacing: normal; orphans: 2; text-align: center; text-indent: 0px; text-transform: none; widows: 2; word-spacing: 0px; -webkit-text-stroke-width: 0px; background-color: rgb(248, 249, 250); text-decoration-thickness: initial; text-decoration-style: initial; text-decoration-color: initial; float: none; display: inline !important;&quot;&gt;&amp;lt;&amp;lt;SQL DB&amp;gt;&amp;gt;&lt;/span&gt;&lt;br style=&quot;color: rgb(0, 0, 0); font-family: Helvetica; font-size: 12px; font-style: normal; font-variant-ligatures: normal; font-variant-caps: normal; font-weight: 400; letter-spacing: normal; orphans: 2; text-align: center; text-indent: 0px; text-transform: none; widows: 2; word-spacing: 0px; -webkit-text-stroke-width: 0px; background-color: rgb(248, 249, 250); text-decoration-thickness: initial; text-decoration-style: initial; text-decoration-color: initial;&quot;&gt;Data for Query&amp;nbsp;" style="shape=cylinder3;whiteSpace=wrap;html=1;boundedLbl=1;backgroundOutline=1;size=15;fillColor=none;gradientColor=default;" vertex="1" parent="1">
          <mxGeometry x="931.9722222222222" y="430" width="97" height="90" as="geometry" />
        </mxCell>
        <mxCell id="n662sS_YWUpIwc5-7mui-18" value="insert" style="edgeStyle=orthogonalEdgeStyle;rounded=0;orthogonalLoop=1;jettySize=auto;html=1;noEdgeStyle=1;orthogonal=1;" edge="1" parent="1" source="n662sS_YWUpIwc5-7mui-13" target="n662sS_YWUpIwc5-7mui-12">
          <mxGeometry relative="1" as="geometry" />
        </mxCell>
        <mxCell id="n662sS_YWUpIwc5-7mui-13" value="&amp;lt;&amp;lt;Serverless&amp;gt;&amp;gt;&lt;br&gt;Normalizer/Aggregator" style="whiteSpace=wrap;html=1;rounded=0;" vertex="1" parent="1">
          <mxGeometry x="160" y="690" width="120" height="60" as="geometry" />
        </mxCell>
        <mxCell id="n662sS_YWUpIwc5-7mui-20" value="&amp;lt;&amp;lt;KV DB&amp;gt;&amp;gt;&lt;br&gt;Caching" style="shape=cylinder3;whiteSpace=wrap;html=1;boundedLbl=1;backgroundOutline=1;size=15;fillColor=none;gradientColor=default;" vertex="1" parent="1">
          <mxGeometry x="931.9722222222222" y="560" width="60" height="80" as="geometry" />
        </mxCell>
      </root>
    </mxGraphModel>
  </diagram>
  <diagram id="yF8CowyZTkOiPt2vfiHv" name="Page-2">
    <mxGraphModel dx="815" dy="520" grid="1" gridSize="10" guides="1" tooltips="1" connect="1" arrows="1" fold="1" page="1" pageScale="1" pageWidth="850" pageHeight="1100" math="0" shadow="0">
      <root>
        <mxCell id="0" />
        <mxCell id="1" parent="0" />
      </root>
    </mxGraphModel>
  </diagram>
</mxfile>
